<svg width="133" height="88" viewBox="0 0 133 88" fill="none" xmlns="http://www.w3.org/2000/svg">
<rect width="132.952" height="88" rx="8" fill="#FAFAFA"/>
<path d="M48.2175 28.1024C47.8932 27.6058 47.4194 27.5915 46.8795 27.5752C46.8183 27.5734 46.7563 27.5715 46.6936 27.5689C46.6458 27.5667 46.5931 27.5676 46.538 27.5685C46.319 27.572 46.0629 27.5761 45.9339 27.3921C45.7843 27.1788 45.7985 26.7666 45.8102 26.4263C45.8139 26.3188 45.8173 26.2184 45.8153 26.1338C45.7943 25.3433 45.7504 24.5036 45.4453 24.2229C45.2152 24.0123 44.5268 24.0415 43.892 24.0684C43.6862 24.0771 43.486 24.0856 43.3089 24.0856H29.796C29.5239 24.0856 29.2387 24.0634 28.9585 24.0417C28.4125 23.9993 27.8853 23.9583 27.511 24.0856C26.9677 24.2712 26.931 25.2467 26.8963 26.1652L26.8945 26.2146C26.8654 26.9729 26.6775 27.558 26.0547 27.4991C25.3303 27.4316 24.6095 27.4103 24.282 28.0659C23.8952 28.8416 23.975 29.6536 24.1178 31.1079C24.1383 31.3157 24.16 31.5365 24.1818 31.7723H48.4264C48.4403 31.6 48.455 31.4299 48.4696 31.2625C48.5831 29.9541 48.682 28.814 48.2175 28.1024Z" fill="#8047F8"/>
<path fill-rule="evenodd" clip-rule="evenodd" d="M26.0699 33.2147C26.4485 38.3395 26.823 43.4701 27.1976 48.6009L27.1978 48.604C27.4012 51.3898 27.6045 54.1757 27.8085 56.9606H28.5821C28.6348 57.3965 28.6951 57.9347 28.7587 58.5021C28.8878 59.6539 29.0304 60.9264 29.1503 61.7083H29.2359C30.0239 61.42 35.4712 59.0916 35.4736 49.8218C35.4726 49.7954 35.4735 49.7689 35.4762 49.7427H34.1304C34.0653 49.7421 34.0021 49.7203 33.9507 49.6808C33.8993 49.6413 33.8624 49.5861 33.8458 49.5238C33.7146 49.1999 33.6089 48.8664 33.5295 48.5264C32.7378 48.9736 32.1091 49.6564 31.733 50.4775C31.3759 49.6365 31.3292 48.6983 31.6009 47.8267C31.8727 46.9551 32.4456 46.2057 33.2195 45.7093C33.2295 43.0043 34.2423 40.3968 36.0661 38.3804L36.0946 38.3553C36.1476 38.3095 36.2155 38.284 36.2859 38.2834C36.3266 38.2838 36.3668 38.2925 36.4039 38.309C36.4415 38.3257 36.4751 38.35 36.5026 38.3804C38.3478 40.3996 39.3552 43.0321 39.3239 45.7531C40.1123 46.2356 40.6969 46.9845 40.9691 47.8608C41.2413 48.7371 41.1827 49.6813 40.8042 50.5181C40.4301 49.6957 39.8008 49.0123 39.0076 48.5671C38.9592 48.8966 38.8699 49.219 38.7419 49.527C38.6977 49.6583 38.6091 49.7427 38.5205 49.7427H37.0853C37.0876 49.7584 37.0892 49.7742 37.0901 49.7901L37.0907 49.7937V49.8014C37.0912 49.815 37.0912 49.8287 37.0907 49.8424C37.1104 59.3783 42.902 61.5428 43.3902 61.7083H43.5572C43.5998 60.9572 43.7386 59.9208 43.8739 58.9104C43.9671 58.2142 44.0587 57.5302 44.116 56.9606H44.8985C45.149 53.4527 45.4066 49.9546 45.6642 46.4564L45.6644 46.4545L45.6645 46.4535C45.994 41.9789 46.3235 37.5042 46.6381 33.0087H26.12C26.0609 33.0202 26.0649 33.1169 26.0699 33.2147ZM36.2859 38.2834L36.2844 38.2834H36.2875L36.2859 38.2834Z" fill="#8047F8"/>
<path d="M55.3088 29.6982C55.3088 28.4332 55.7446 27.4527 56.6162 26.757C57.5037 26.0454 58.8349 25.6896 60.6099 25.6896C61.7827 25.6896 62.7811 25.8003 63.6052 26.0217V29.295C62.7177 29.0262 61.8381 28.8917 60.9665 28.8917C60.1107 28.8917 59.556 28.9945 59.3025 29.2001C59.0489 29.3899 58.9221 29.6745 58.9221 30.054V38.0238C58.9221 38.7829 59.5164 39.1624 60.705 39.1624C61.9094 39.1624 62.8999 39.0438 63.6765 38.8066V42.0088C62.8207 42.246 61.7827 42.3646 60.5624 42.3646C58.7874 42.3646 57.4641 42.0167 56.5925 41.3209C55.7367 40.6251 55.3088 39.6447 55.3088 38.3796V29.6982Z" fill="#403937"/>
<path d="M70.6205 31.9516C70.6205 31.3507 70.2877 31.0502 69.6221 31.0502C68.9564 31.0502 68.6236 31.3507 68.6236 31.9516V38.5457C68.6236 39.1466 68.9564 39.447 69.6221 39.447C70.2877 39.447 70.6205 39.1466 70.6205 38.5457V31.9516ZM65.1054 31.833C65.1054 30.6312 65.4778 29.6982 66.2227 29.0341C66.9834 28.3541 68.1165 28.0141 69.6221 28.0141C71.1276 28.0141 72.2528 28.3541 72.9977 29.0341C73.7584 29.6982 74.1387 30.6312 74.1387 31.833V38.6643C74.1387 39.8661 73.7584 40.807 72.9977 41.4869C72.2528 42.1511 71.1276 42.4832 69.6221 42.4832C68.1165 42.4832 66.9834 42.1511 66.2227 41.4869C65.4778 40.807 65.1054 39.8661 65.1054 38.6643V31.833Z" fill="#403937"/>
<path d="M76.4492 28.0853C76.4492 25.4128 77.8597 24.0766 80.6806 24.0766C81.0451 24.0766 81.4809 24.1162 81.9881 24.1952V26.9467C81.7345 26.9151 81.4968 26.8993 81.2749 26.8993C80.4667 26.8993 80.0626 27.2788 80.0626 28.0378V28.2513H81.9881V31.0502H80.0626V42.246H76.4492V31.0502H75.0942V28.2513H76.4492V28.0853Z" fill="#403937"/>
<path d="M83.4601 28.0853C83.4601 25.4128 84.8705 24.0766 87.6915 24.0766C88.056 24.0766 88.4918 24.1162 88.9989 24.1952V26.9467C88.7454 26.9151 88.5076 26.8993 88.2858 26.8993C87.4775 26.8993 87.0734 27.2788 87.0734 28.0378V28.2513H88.9989V31.0502H87.0734V42.246H83.4601V31.0502H82.1051V28.2513H83.4601V28.0853Z" fill="#403937"/>
<path d="M89.8291 38.261V31.833C89.8291 30.6312 90.2015 29.6982 90.9464 29.0341C91.6912 28.3541 92.8164 28.0141 94.322 28.0141C97.2221 28.0141 98.6722 29.2871 98.6722 31.833V36.6481H93.276V37.9764C93.276 38.4508 93.4028 38.7908 93.6564 38.9964C93.9258 39.1861 94.5042 39.281 95.3917 39.281C96.295 39.281 97.2776 39.1229 98.3394 38.8066V41.9376C97.2301 42.2381 96.0415 42.3883 94.7736 42.3883C91.4773 42.3883 89.8291 41.0125 89.8291 38.261ZM93.276 33.9203H95.3679V31.8804C95.3679 31.2795 95.0193 30.9791 94.322 30.9791C93.6247 30.9791 93.276 31.2795 93.276 31.8804V33.9203Z" fill="#403937"/>
<path d="M100.09 38.261V31.833C100.09 30.6312 100.462 29.6982 101.207 29.0341C101.952 28.3541 103.077 28.0141 104.583 28.0141C107.483 28.0141 108.933 29.2871 108.933 31.833V36.6481H103.537V37.9764C103.537 38.4508 103.664 38.7908 103.917 38.9964C104.187 39.1861 104.765 39.281 105.653 39.281C106.556 39.281 107.539 39.1229 108.6 38.8066V41.9376C107.491 42.2381 106.302 42.3883 105.035 42.3883C101.738 42.3883 100.09 41.0125 100.09 38.261ZM103.537 33.9203H105.629V31.8804C105.629 31.2795 105.28 30.9791 104.583 30.9791C103.886 30.9791 103.537 31.2795 103.537 31.8804V33.9203Z" fill="#403937"/>
<path d="M61.0305 50.9797C61.0305 49.8119 60.4128 49.2281 59.1775 49.2281H57.2075V59.874H59.1775C60.4128 59.874 61.0305 59.2771 61.0305 58.0834V50.9797ZM55.8226 48.0214H59.2555C60.2958 48.0214 61.0825 48.2874 61.6156 48.8194C62.1488 49.3513 62.4154 50.065 62.4154 50.9602V58.1224C62.4154 59.0436 62.1553 59.7702 61.6351 60.3022C61.115 60.8341 60.3348 61.1001 59.2945 61.1001H55.8226V48.0214Z" fill="#403937"/>
<path d="M64.6944 58.2781V52.8675C64.6944 51.9463 64.9545 51.2132 65.4746 50.6683C66.0078 50.1104 66.8075 49.8314 67.8737 49.8314C68.94 49.8314 69.7267 50.1104 70.2339 50.6683C70.754 51.2132 71.0141 51.9463 71.0141 52.8675V56.254H66.0598V58.2197C66.0598 58.8036 66.2418 59.2382 66.6059 59.5237C66.97 59.8091 67.5357 59.9518 68.3029 59.9518C69.0701 59.9518 69.8633 59.8351 70.6825 59.6015V60.886C70.0323 61.0936 69.2586 61.1974 68.3614 61.1974C65.9167 61.1974 64.6944 60.2243 64.6944 58.2781ZM66.0598 55.1057H69.6877V52.8675C69.6877 51.6479 69.0831 51.0381 67.8737 51.0381C66.6644 51.0381 66.0598 51.6479 66.0598 52.8675V55.1057Z" fill="#403937"/>
<path d="M73.3849 47.0872H74.7697V61.1001H73.3849V47.0872Z" fill="#403937"/>
<path d="M78.1438 48.7804C77.5847 48.7804 77.3051 48.482 77.3051 47.8852C77.3051 47.2883 77.5847 46.9899 78.1438 46.9899C78.716 46.9899 79.002 47.2883 79.002 47.8852C79.002 48.482 78.716 48.7804 78.1438 48.7804ZM77.4611 50.1039H78.846V61.1001H77.4611V50.1039Z" fill="#403937"/>
<path d="M85.9846 50.026H87.3889L84.9313 61.1001H82.9808L80.5231 50.026H81.947L83.0198 55.1057L83.9755 60.127C84.3656 57.9732 85.0353 54.6062 85.9846 50.026Z" fill="#403937"/>
<path d="M88.8663 58.2781V52.8675C88.8663 51.9463 89.1264 51.2132 89.6465 50.6683C90.1796 50.1104 90.9794 49.8314 92.0456 49.8314C93.1119 49.8314 93.8986 50.1104 94.4058 50.6683C94.9259 51.2132 95.186 51.9463 95.186 52.8675V56.254H90.2317V58.2197C90.2317 58.8036 90.4137 59.2382 90.7778 59.5237C91.1419 59.8091 91.7075 59.9518 92.4747 59.9518C93.2419 59.9518 94.0352 59.8351 94.8544 59.6015V60.886C94.2042 61.0936 93.4305 61.1974 92.5333 61.1974C90.0886 61.1974 88.8663 60.2243 88.8663 58.2781ZM90.2317 55.1057H93.8596V52.8675C93.8596 51.6479 93.255 51.0381 92.0456 51.0381C90.8363 51.0381 90.2317 51.6479 90.2317 52.8675V55.1057Z" fill="#403937"/>
<path d="M101.146 49.9676H101.633V51.2911H100.97C100.502 51.2911 100.079 51.4143 99.7023 51.6609C99.5853 51.7387 99.3317 51.9139 98.9416 52.1864V61.1001H97.5567V50.026H98.8831V50.8629C98.9221 50.837 99.0196 50.7656 99.1757 50.6488C99.3447 50.5321 99.4422 50.4672 99.4682 50.4542C99.5073 50.4283 99.5918 50.3764 99.7218 50.2985C99.8649 50.2207 99.9689 50.1752 100.034 50.1623C100.112 50.1363 100.216 50.1039 100.346 50.065C100.541 50.0001 100.808 49.9676 101.146 49.9676Z" fill="#403937"/>
<path d="M107.567 50.026H108.952L105.909 64H104.583L105.187 61.1001H104.505L102.086 50.026H103.49L104.661 55.5339L105.519 60.127C105.779 58.596 106.065 57.0649 106.377 55.5339L107.567 50.026Z" fill="#403937"/>
</svg>
